STARTFONT 2.1
FONT pica8.18x30
SIZE 27 80 80
FONTBOUNDINGBOX 18 30 0 -6

STARTPROPERTIES 9
POINT_SIZE 270
WEIGHT 10
RESOLUTION_X 80
RESOLUTION_Y 80
X_HEIGHT -4
QUAD_WIDTH 18
DEFAULT_CHAR 32
FONT_DESCENT 6
FONT_ASCENT 24
ENDPROPERTIES

CHARS 224

STARTCHAR onx32
ENCODING 32
SWIDTH 600 0
DWIDTH 18 0
BBX 18 30 0 -6
BITMAP
000000
000000
000000
000000
000000
000000
000000
000000
000000
000000
000000
000000
000000
000000
000000
000000
000000
000000
000000
000000
000000
000000
000000
000000
000000
000000
000000
000000
000000
000000
ENDCHAR

STARTCHAR onx33
ENCODING 33
SWIDTH 600 0
DWIDTH 18 0
BBX 18 30 0 -6
BITMAP
000000
000000
000000
000000
000000
00C000
00C000
00C000
00C000
00C000
00C000
00C000
00C000
00C000
00C000
00C000
00C000
00C000
000000
000000
00C000
01E000
01E000
00C000
000000
000000
000000
000000
000000
000000
ENDCHAR

STARTCHAR onx34
ENCODING 34
SWIDTH 600 0
DWIDTH 18 0
BBX 18 30 0 -6
BITMAP
000000
000000
000000
061800
061800
061800
061800
061800
061800
061800
061800
000000
000000
000000
000000
000000
000000
000000
000000
000000
000000
000000
000000
000000
000000
000000
000000
000000
000000
000000
ENDCHAR

STARTCHAR onx35
ENCODING 35
SWIDTH 600 0
DWIDTH 18 0
BBX 18 30 0 -6
BITMAP
000000
000000
000000
000000
00C600
00C600
00C600
018C00
018C00
018C00
018C00
0FFF00
0FFF00
031800
031800
031800
1FFE00
1FFE00
063000
063000
063000
063000
0C6000
0C6000
0C6000
000000
000000
000000
000000
000000
ENDCHAR

STARTCHAR onx36
ENCODING 36
SWIDTH 600 0
DWIDTH 18 0
BBX 18 30 0 -6
BITMAP
000000
000000
00C000
00C000
00C000
00C000
03F000
07FC00
0CC600
0CCE00
0CC400
0CC000
0EC000
07F000
01FC00
00CC00
00C600
00C600
08C600
1CC600
18CC00
0FFC00
07F000
00C000
00C000
00C000
00C000
000000
000000
000000
ENDCHAR

STARTCHAR onx37
ENCODING 37
SWIDTH 600 0
DWIDTH 18 0
BBX 18 30 0 -6
BITMAP
000000
000000
000000
000600
001E00
07FE00
1FEC00
190C00
319800
319800
333000
3F3000
1C6000
006000
00C000
00C700
019F80
019980
033180
033180
063300
063F00
0C1C00
0C0000
180000
180000
000000
000000
000000
000000
ENDCHAR

STARTCHAR onx38
ENCODING 38
SWIDTH 600 0
DWIDTH 18 0
BBX 18 30 0 -6
BITMAP
000000
000000
000000
000000
000000
038000
07C000
0C6000
0C6000
0C6000
0C6000
06C000
038000
030000
078000
0CC600
0CCE00
186800
183800
183000
183000
1C7800
0FCE00
078600
000000
000000
000000
000000
000000
000000
ENDCHAR

STARTCHAR onx39
ENCODING 39
SWIDTH 600 0
DWIDTH 18 0
BBX 18 30 0 -6
BITMAP
000000
000000
000000
00C000
01E000
01E000
00E000
006000
00C000
018000
030000
000000
000000
000000
000000
000000
000000
000000
000000
000000
000000
000000
000000
000000
000000
000000
000000
000000
000000
000000
ENDCHAR

STARTCHAR onx40
ENCODING 40
SWIDTH 600 0
DWIDTH 18 0
BBX 18 30 0 -6
BITMAP
000000
000000
000000
003000
006000
00C000
00C000
018000
018000
030000
030000
030000
060000
060000
060000
060000
060000
060000
060000
030000
030000
030000
018000
018000
00C000
00C000
006000
003000
000000
000000
ENDCHAR

STARTCHAR onx41
ENCODING 41
SWIDTH 600 0
DWIDTH 18 0
BBX 18 30 0 -6
BITMAP
000000
000000
000000
060000
030000
018000
018000
00C000
00C000
006000
006000
006000
003000
003000
003000
003000
003000
003000
003000
006000
006000
006000
00C000
00C000
018000
018000
030000
060000
000000
000000
ENDCHAR

STARTCHAR onx42
ENCODING 42
SWIDTH 600 0
DWIDTH 18 0
BBX 18 30 0 -6
BITMAP
000000
021000
073800
073800
033000
00C000
0CCC00
1FFE00
0CCC00
00C000
033000
073800
073800
021000
000000
000000
000000
000000
000000
000000
000000
000000
000000
000000
000000
000000
000000
000000
000000
000000
ENDCHAR

STARTCHAR onx43
ENCODING 43
SWIDTH 600 0
DWIDTH 18 0
BBX 18 30 0 -6
BITMAP
000000
000000
000000
000000
000000
000000
000000
000000
00C000
00C000
00C000
00C000
00C000
1FFE00
1FFE00
00C000
00C000
00C000
00C000
00C000
000000
000000
000000
000000
000000
000000
000000
000000
000000
000000
ENDCHAR

STARTCHAR onx44
ENCODING 44
SWIDTH 600 0
DWIDTH 18 0
BBX 18 30 0 -6
BITMAP
000000
000000
000000
000000
000000
000000
000000
000000
000000
000000
000000
000000
000000
000000
000000
000000
000000
000000
000000
000000
00C000
01E000
01E000
00E000
006000
00C000
018000
030000
000000
000000
ENDCHAR

STARTCHAR onx45
ENCODING 45
SWIDTH 600 0
DWIDTH 18 0
BBX 18 30 0 -6
BITMAP
000000
000000
000000
000000
000000
000000
000000
000000
000000
000000
000000
000000
000000
000000
000000
1FFE00
1FFE00
000000
000000
000000
000000
000000
000000
000000
000000
000000
000000
000000
000000
000000
ENDCHAR

STARTCHAR onx46
ENCODING 46
SWIDTH 600 0
DWIDTH 18 0
BBX 18 30 0 -6
BITMAP
000000
000000
000000
000000
000000
000000
000000
000000
000000
000000
000000
000000
000000
000000
000000
000000
000000
000000
000000
000000
00C000
01E000
01E000
00C000
000000
000000
000000
000000
000000
000000
ENDCHAR

STARTCHAR onx47
ENCODING 47
SWIDTH 600 0
DWIDTH 18 0
BBX 18 30 0 -6
BITMAP
000000
000000
000000
000300
000300
000600
000600
000C00
000C00
001800
001800
003000
003000
006000
006000
00C000
00C000
018000
018000
030000
030000
060000
060000
0C0000
0C0000
180000
180000
000000
000000
000000
ENDCHAR

STARTCHAR onx48
ENCODING 48
SWIDTH 600 0
DWIDTH 18 0
BBX 18 30 0 -6
BITMAP
000000
000000
000000
000000
000000
01E000
07F800
061800
0C0C00
0C0C00
180600
180600
180600
180600
180600
180600
180600
180600
180600
0C0C00
0C0C00
061800
07F800
01E000
000000
000000
000000
000000
000000
000000
ENDCHAR

STARTCHAR onx49
ENCODING 49
SWIDTH 600 0
DWIDTH 18 0
BBX 18 30 0 -6
BITMAP
000000
000000
000000
000000
000000
01C000
07C000
1CC000
00C000
00C000
00C000
00C000
00C000
00C000
00C000
00C000
00C000
00C000
00C000
00C000
00C000
00C000
1FFE00
1FFE00
000000
000000
000000
000000
000000
000000
ENDCHAR

STARTCHAR onx50
ENCODING 50
SWIDTH 600 0
DWIDTH 18 0
BBX 18 30 0 -6
BITMAP
000000
000000
000000
000000
000000
01E000
07F800
0E1C00
180600
180600
000600
000600
000C00
000C00
003800
00F000
03C000
070000
0C0000
0C0000
180000
180000
1FFE00
1FFE00
000000
000000
000000
000000
000000
000000
ENDCHAR

STARTCHAR onx51
ENCODING 51
SWIDTH 600 0
DWIDTH 18 0
BBX 18 30 0 -6
BITMAP
000000
000000
000000
000000
000000
01F000
07FC00
1E0C00
180600
000600
000600
000600
000C00
001800
03F000
03F000
003800
000C00
000C00
000600
000600
000600
000600
000C00
181C00
1FF800
07E000
000000
000000
000000
ENDCHAR

STARTCHAR onx52
ENCODING 52
SWIDTH 600 0
DWIDTH 18 0
BBX 18 30 0 -6
BITMAP
000000
000000
080000
0C0000
0C0000
061800
061800
061800
061800
061800
061800
061800
061800
0C1800
0C1800
0C1800
181800
3FFE00
3FFE00
001800
001800
001800
001800
001800
000000
000000
000000
000000
000000
000000
ENDCHAR

STARTCHAR onx53
ENCODING 53
SWIDTH 600 0
DWIDTH 18 0
BBX 18 30 0 -6
BITMAP
000000
000000
000000
000000
000000
1FFC00
1FFC00
180000
180000
180000
180000
180000
19E000
1FF800
1E1C00
180C00
000600
000600
000600
000600
000600
000C00
000C00
001800
007000
03E000
1F8000
1C0000
000000
000000
ENDCHAR

STARTCHAR onx54
ENCODING 54
SWIDTH 600 0
DWIDTH 18 0
BBX 18 30 0 -6
BITMAP
000000
000000
003C00
00FC00
01C000
030000
060000
060000
0C0000
0C0000
180000
19E000
1BF800
1E1C00
1C0C00
180600
180600
180600
180600
180600
0C0C00
0E1C00
07F800
01E000
000000
000000
000000
000000
000000
000000
ENDCHAR

STARTCHAR onx55
ENCODING 55
SWIDTH 600 0
DWIDTH 18 0
BBX 18 30 0 -6
BITMAP
000000
000000
000000
000000
000000
1FFE00
1FFE00
180C00
181800
181800
003000
003000
006000
006000
006000
00C000
00C000
00C000
018000
018000
018000
018000
018000
018000
018000
018000
018000
000000
000000
000000
ENDCHAR

STARTCHAR onx56
ENCODING 56
SWIDTH 600 0
DWIDTH 18 0
BBX 18 30 0 -6
BITMAP
000000
000000
01E000
07F800
061800
0C0C00
0C0C00
0C0C00
0C0C00
0C0C00
061800
03F000
07F800
0E1C00
0C0C00
180600
180600
180600
180600
180600
0C0C00
0E1C00
07F800
01E000
000000
000000
000000
000000
000000
000000
ENDCHAR

STARTCHAR onx57
ENCODING 57
SWIDTH 600 0
DWIDTH 18 0
BBX 18 30 0 -6
BITMAP
000000
000000
000000
000000
000000
01E000
07F800
0E1C00
0C0C00
180600
180600
180600
180600
180600
0C0E00
0E1E00
07F600
01E600
000600
000C00
000C00
001800
001800
003000
00E000
1FC000
1F0000
000000
000000
000000
ENDCHAR

STARTCHAR onx58
ENCODING 58
SWIDTH 600 0
DWIDTH 18 0
BBX 18 30 0 -6
BITMAP
000000
000000
000000
000000
000000
000000
000000
000000
000000
000000
00C000
01E000
01E000
00C000
000000
000000
000000
000000
000000
000000
00C000
01E000
01E000
00C000
000000
000000
000000
000000
000000
000000
ENDCHAR

STARTCHAR onx59
ENCODING 59
SWIDTH 600 0
DWIDTH 18 0
BBX 18 30 0 -6
BITMAP
000000
000000
000000
000000
000000
000000
000000
000000
000000
000000
00C000
01E000
01E000
00C000
000000
000000
000000
000000
000000
000000
00C000
01E000
01E000
00E000
006000
00C000
018000
030000
000000
000000
ENDCHAR

STARTCHAR onx60
ENCODING 60
SWIDTH 600 0
DWIDTH 18 0
BBX 18 30 0 -6
BITMAP
000000
000000
000000
000000
000000
000000
000000
000000
003000
006000
00C000
018000
030000
060000
0C0000
060000
030000
018000
00C000
006000
003000
000000
000000
000000
000000
000000
000000
000000
000000
000000
ENDCHAR

STARTCHAR onx61
ENCODING 61
SWIDTH 600 0
DWIDTH 18 0
BBX 18 30 0 -6
BITMAP
000000
000000
000000
000000
000000
000000
000000
000000
000000
000000
000000
1FFE00
1FFE00
000000
000000
000000
1FFE00
1FFE00
000000
000000
000000
000000
000000
000000
000000
000000
000000
000000
000000
000000
ENDCHAR

STARTCHAR onx62
ENCODING 62
SWIDTH 600 0
DWIDTH 18 0
BBX 18 30 0 -6
BITMAP
000000
000000
000000
000000
000000
000000
000000
000000
030000
018000
00C000
006000
003000
001800
000C00
001800
003000
006000
00C000
018000
030000
000000
000000
000000
000000
000000
000000
000000
000000
000000
ENDCHAR

STARTCHAR onx63
ENCODING 63
SWIDTH 600 0
DWIDTH 18 0
BBX 18 30 0 -6
BITMAP
000000
000000
000000
000000
000000
01E000
03F800
061800
0C0C00
0E0C00
0E0C00
041800
001800
003000
006000
00C000
00C000
00C000
000000
000000
00C000
01E000
01E000
00C000
000000
000000
000000
000000
000000
000000
ENDCHAR

STARTCHAR onx64
ENCODING 64
SWIDTH 600 0
DWIDTH 18 0
BBX 18 30 0 -6
BITMAP
000000
000000
000000
000000
01F800
07FC00
0E0600
0C0600
180300
180300
307300
30F300
31B300
333300
333300
333300
333300
33DE00
318C00
300000
180000
180600
0C0E00
0FFC00
03F000
000000
000000
000000
000000
000000
ENDCHAR

STARTCHAR onx65
ENCODING 65
SWIDTH 600 0
DWIDTH 18 0
BBX 18 30 0 -6
BITMAP
000000
000000
000000
000000
000000
00C000
00C000
01E000
01E000
012000
033000
033000
033000
061800
061800
061800
0C0C00
0FFC00
0FFC00
180600
180600
180600
7E1F80
7E1F80
000000
000000
000000
000000
000000
000000
ENDCHAR

STARTCHAR onx66
ENCODING 66
SWIDTH 600 0
DWIDTH 18 0
BBX 18 30 0 -6
BITMAP
000000
000000
000000
000000
000000
3FF000
3FFC00
0C0C00
0C0600
0C0600
0C0600
0C0600
0C0C00
0FFC00
0FF800
0C0C00
0C0600
0C0300
0C0300
0C0300
0C0300
0C0600
3FFE00
3FF800
000000
000000
000000
000000
000000
000000
ENDCHAR

STARTCHAR onx67
ENCODING 67
SWIDTH 600 0
DWIDTH 18 0
BBX 18 30 0 -6
BITMAP
000000
000000
000000
000000
000000
01E600
07F600
0E1E00
0C0E00
180600
180600
300000
300000
300000
300000
300000
300000
300000
180600
180600
0C0C00
0E1C00
07F800
01E000
000000
000000
000000
000000
000000
000000
ENDCHAR

STARTCHAR onx68
ENCODING 68
SWIDTH 600 0
DWIDTH 18 0
BBX 18 30 0 -6
BITMAP
000000
000000
000000
000000
000000
7FE000
7FF800
181C00
180C00
180600
180600
180300
180300
180300
180300
180300
180300
180300
180600
180600
180C00
181C00
7FF800
7FE000
000000
000000
000000
000000
000000
000000
ENDCHAR

STARTCHAR onx69
ENCODING 69
SWIDTH 600 0
DWIDTH 18 0
BBX 18 30 0 -6
BITMAP
000000
000000
000000
000000
000000
7FFF00
7FFF00
180300
180300
180300
180000
183000
183000
1FF000
1FF000
183000
183000
180000
180300
180300
180300
180300
7FFF00
7FFF00
000000
000000
000000
000000
000000
000000
ENDCHAR

STARTCHAR onx70
ENCODING 70
SWIDTH 600 0
DWIDTH 18 0
BBX 18 30 0 -6
BITMAP
000000
000000
000000
000000
000000
7FFF00
7FFF00
180300
180300
180300
180300
183300
183000
1FF000
1FF000
183000
183000
180000
180000
180000
180000
180000
7F8000
7F8000
000000
000000
000000
000000
000000
000000
ENDCHAR

STARTCHAR onx71
ENCODING 71
SWIDTH 600 0
DWIDTH 18 0
BBX 18 30 0 -6
BITMAP
000000
000000
000000
000000
000000
01E600
07F600
0E1E00
0C0E00
180600
180600
300600
300000
300000
300000
303F00
303F00
300600
180600
180600
0C0E00
0E1E00
07F600
01E600
000000
000000
000000
000000
000000
000000
ENDCHAR

STARTCHAR onx72
ENCODING 72
SWIDTH 600 0
DWIDTH 18 0
BBX 18 30 0 -6
BITMAP
000000
000000
000000
000000
000000
7E1F80
7E1F80
180600
180600
180600
180600
180600
180600
1FFE00
1FFE00
180600
180600
180600
180600
180600
180600
180600
7E1F80
7E1F80
000000
000000
000000
000000
000000
000000
ENDCHAR

STARTCHAR onx73
ENCODING 73
SWIDTH 600 0
DWIDTH 18 0
BBX 18 30 0 -6
BITMAP
000000
000000
000000
000000
000000
3FFF00
3FFF00
00C000
00C000
00C000
00C000
00C000
00C000
00C000
00C000
00C000
00C000
00C000
00C000
00C000
00C000
00C000
3FFF00
3FFF00
000000
000000
000000
000000
000000
000000
ENDCHAR

STARTCHAR onx74
ENCODING 74
SWIDTH 600 0
DWIDTH 18 0
BBX 18 30 0 -6
BITMAP
000000
000000
000000
000000
000000
03FF80
03FF80
001800
001800
001800
001800
001800
001800
001800
001800
001800
001800
181800
3C1800
3C1800
383000
187000
1FE000
078000
000000
000000
000000
000000
000000
000000
ENDCHAR

STARTCHAR onx75
ENCODING 75
SWIDTH 600 0
DWIDTH 18 0
BBX 18 30 0 -6
BITMAP
000000
000000
000000
000000
000000
3F1F80
3F1F80
0C0600
0C0C00
0C1800
0C3000
0C6000
0CC000
0DC000
0F6000
0E6000
0C3000
0C1800
0C1800
0C0C00
0C0600
0C0600
3F1F80
3F1F80
000000
000000
000000
000000
000000
000000
ENDCHAR

STARTCHAR onx76
ENCODING 76
SWIDTH 600 0
DWIDTH 18 0
BBX 18 30 0 -6
BITMAP
000000
000000
000000
000000
000000
3FE000
3FE000
060000
060000
060000
060000
060000
060000
060000
060000
060000
060180
060180
060180
060180
060180
060180
3FFF80
3FFF80
000000
000000
000000
000000
000000
000000
ENDCHAR

STARTCHAR onx77
ENCODING 77
SWIDTH 600 0
DWIDTH 18 0
BBX 18 30 0 -6
BITMAP
000000
000000
000000
000000
000000
F80F80
FC1F80
3C1E00
341600
363600
363600
322600
336600
336600
336600
31C600
31C600
308600
308600
300600
300600
300600
FC1F80
FC1F80
000000
000000
000000
000000
000000
000000
ENDCHAR

STARTCHAR onx78
ENCODING 78
SWIDTH 600 0
DWIDTH 18 0
BBX 18 30 0 -6
BITMAP
000000
000000
000000
000000
000000
7C1F80
7C1F80
1E0600
1A0600
1B0600
1B0600
198600
198600
18C600
18C600
186600
186600
183600
183600
181600
181E00
180E00
7E0E00
7E0600
000000
000000
000000
000000
000000
000000
ENDCHAR

STARTCHAR onx79
ENCODING 79
SWIDTH 600 0
DWIDTH 18 0
BBX 18 30 0 -6
BITMAP
000000
000000
000000
000000
000000
01E000
07F800
0E1C00
180600
180600
180600
300300
300300
300300
300300
300300
300300
300300
180600
180600
180600
0E1C00
07F800
01E000
000000
000000
000000
000000
000000
000000
ENDCHAR

STARTCHAR onx80
ENCODING 80
SWIDTH 600 0
DWIDTH 18 0
BBX 18 30 0 -6
BITMAP
000000
000000
000000
000000
000000
3FF800
3FFE00
060600
060300
060300
060300
060300
060600
07FE00
07F800
060000
060000
060000
060000
060000
060000
060000
3FC000
3FC000
000000
000000
000000
000000
000000
000000
ENDCHAR

STARTCHAR onx81
ENCODING 81
SWIDTH 600 0
DWIDTH 18 0
BBX 18 30 0 -6
BITMAP
000000
000000
000000
000000
000000
01E000
07F800
0E1C00
180600
180600
180600
300300
300300
300300
300300
300300
300300
31C300
1BE600
1B3600
1E3600
0E1C00
07F800
01D880
001980
000F80
000700
000000
000000
000000
ENDCHAR

STARTCHAR onx82
ENCODING 82
SWIDTH 600 0
DWIDTH 18 0
BBX 18 30 0 -6
BITMAP
000000
000000
000000
000000
000000
3FF800
3FFE00
0C0600
0C0300
0C0300
0C0300
0C0300
0C0600
0FFC00
0FF800
0C1800
0C0C00
0C0C00
0C0600
0C0600
0C0600
0C0600
3F0780
3F0780
000000
000000
000000
000000
000000
000000
ENDCHAR

STARTCHAR onx83
ENCODING 83
SWIDTH 600 0
DWIDTH 18 0
BBX 18 30 0 -6
BITMAP
000000
000000
000000
000000
000000
03E600
0FF600
0C1E00
180E00
180600
180600
0C0000
0F0000
03E000
00F800
001E00
000600
300300
300300
300300
380600
3E0E00
37FC00
31F000
000000
000000
000000
000000
000000
000000
ENDCHAR

STARTCHAR onx84
ENCODING 84
SWIDTH 600 0
DWIDTH 18 0
BBX 18 30 0 -6
BITMAP
000000
000000
000000
000000
000000
3FFF00
3FFF00
30C300
30C300
30C300
30C300
30C300
30C300
00C000
00C000
00C000
00C000
00C000
00C000
00C000
00C000
00C000
0FFC00
0FFC00
000000
000000
000000
000000
000000
000000
ENDCHAR

STARTCHAR onx85
ENCODING 85
SWIDTH 600 0
DWIDTH 18 0
BBX 18 30 0 -6
BITMAP
000000
000000
000000
000000
000000
7E1F80
7E1F80
180600
180600
180600
180600
180600
180600
180600
180600
180600
180600
180600
180600
180600
0C0C00
0E1C00
07F800
01E000
000000
000000
000000
000000
000000
000000
ENDCHAR

STARTCHAR onx86
ENCODING 86
SWIDTH 600 0
DWIDTH 18 0
BBX 18 30 0 -6
BITMAP
000000
000000
000000
000000
000000
7E1F80
7E1F80
180600
180600
180600
0C0C00
0C0C00
0C0C00
061800
061800
061800
033000
033000
033000
01E000
01E000
01E000
00C000
00C000
000000
000000
000000
000000
000000
000000
ENDCHAR

STARTCHAR onx87
ENCODING 87
SWIDTH 600 0
DWIDTH 18 0
BBX 18 30 0 -6
BITMAP
000000
000000
000000
000000
000000
FC0FC0
FC0FC0
300300
300300
300300
300300
30C300
30C300
19E600
19E600
192600
1B3600
1B3600
1B3600
1A1600
0E1C00
0E1C00
0C0C00
0C0C00
000000
000000
000000
000000
000000
000000
ENDCHAR

STARTCHAR onx88
ENCODING 88
SWIDTH 600 0
DWIDTH 18 0
BBX 18 30 0 -6
BITMAP
000000
000000
000000
000000
000000
7E1F80
7E1F80
180600
0C0C00
0C0C00
061800
033000
033000
01E000
00C000
01E000
033000
061800
061800
0C0C00
180600
180600
7E1F80
7E1F80
000000
000000
000000
000000
000000
000000
ENDCHAR

STARTCHAR onx89
ENCODING 89
SWIDTH 600 0
DWIDTH 18 0
BBX 18 30 0 -6
BITMAP
000000
000000
000000
000000
000000
7E1F80
7E1F80
180600
0C0C00
0C0C00
061800
061800
033000
033000
01E000
01E000
00C000
00C000
00C000
00C000
00C000
00C000
0FFC00
0FFC00
000000
000000
000000
000000
000000
000000
ENDCHAR

STARTCHAR onx90
ENCODING 90
SWIDTH 600 0
DWIDTH 18 0
BBX 18 30 0 -6
BITMAP
000000
000000
000000
000000
000000
1FFE00
1FFE00
180C00
181800
181800
183000
006000
006000
00C000
018000
018000
030000
060000
060600
0C0600
180600
180600
3FFE00
3FFE00
000000
000000
000000
000000
000000
000000
ENDCHAR

STARTCHAR onx91
ENCODING 91
SWIDTH 600 0
DWIDTH 18 0
BBX 18 30 0 -6
BITMAP
000000
000000
000000
01F800
01F800
018000
018000
018000
018000
018000
018000
018000
018000
018000
018000
018000
018000
018000
018000
018000
018000
018000
018000
018000
018000
018000
01F800
01F800
000000
000000
ENDCHAR

STARTCHAR onx92
ENCODING 92
SWIDTH 600 0
DWIDTH 18 0
BBX 18 30 0 -6
BITMAP
000000
000000
000000
300000
300000
180000
180000
0C0000
0C0000
060000
060000
030000
030000
018000
018000
00C000
00C000
006000
006000
003000
003000
001800
001800
000C00
000C00
000600
000600
000000
000000
000000
ENDCHAR

STARTCHAR onx93
ENCODING 93
SWIDTH 600 0
DWIDTH 18 0
BBX 18 30 0 -6
BITMAP
000000
000000
000000
07E000
07E000
006000
006000
006000
006000
006000
006000
006000
006000
006000
006000
006000
006000
006000
006000
006000
006000
006000
006000
006000
006000
006000
07E000
07E000
000000
000000
ENDCHAR

STARTCHAR onx94
ENCODING 94
SWIDTH 600 0
DWIDTH 18 0
BBX 18 30 0 -6
BITMAP
000000
000000
004000
00E000
01B000
031800
060C00
0C0600
180300
000000
000000
000000
000000
000000
000000
000000
000000
000000
000000
000000
000000
000000
000000
000000
000000
000000
000000
000000
000000
000000
ENDCHAR

STARTCHAR onx95
ENCODING 95
SWIDTH 600 0
DWIDTH 18 0
BBX 18 30 0 -6
BITMAP
000000
000000
000000
000000
000000
000000
000000
000000
000000
000000
000000
000000
000000
000000
000000
000000
000000
000000
000000
000000
000000
000000
000000
000000
000000
000000
000000
000000
FFFFC0
FFFFC0
ENDCHAR

STARTCHAR onx96
ENCODING 96
SWIDTH 600 0
DWIDTH 18 0
BBX 18 30 0 -6
BITMAP
000000
000000
0F0000
070000
038000
018000
00C000
004000
000000
000000
000000
000000
000000
000000
000000
000000
000000
000000
000000
000000
000000
000000
000000
000000
000000
000000
000000
000000
000000
000000
ENDCHAR

STARTCHAR onx97
ENCODING 97
SWIDTH 600 0
DWIDTH 18 0
BBX 18 30 0 -6
BITMAP
000000
000000
000000
000000
000000
000000
000000
000000
000000
000000
03E000
0FF800
1C1C00
180C00
000C00
01FC00
07FC00
1E0C00
180C00
300C00
301C00
387C80
1FEF80
078700
000000
000000
000000
000000
000000
000000
ENDCHAR

STARTCHAR onx98
ENCODING 98
SWIDTH 600 0
DWIDTH 18 0
BBX 18 30 0 -6
BITMAP
000000
000000
000000
000000
000000
780000
780000
180000
180000
180000
19E000
1BF800
1E1C00
1C0C00
180600
180600
180600
180600
180600
180600
1C0C00
1E1C00
1BF800
19E000
000000
000000
000000
000000
000000
000000
ENDCHAR

STARTCHAR onx99
ENCODING 99
SWIDTH 600 0
DWIDTH 18 0
BBX 18 30 0 -6
BITMAP
000000
000000
000000
000000
000000
000000
000000
000000
000000
000000
01F000
07FC00
0E0C00
0C0600
180E00
180C00
180000
180000
180000
180000
0C0600
0E0E00
07FC00
01F000
000000
000000
000000
000000
000000
000000
ENDCHAR

STARTCHAR onx100
ENCODING 100
SWIDTH 600 0
DWIDTH 18 0
BBX 18 30 0 -6
BITMAP
000000
000000
000000
000000
000000
007C00
007C00
000C00
000C00
000C00
03CC00
0FEC00
1C3C00
181C00
300C00
300C00
300C00
300C00
300C00
300C00
181C00
1C3C00
0FEF00
03CF00
000000
000000
000000
000000
000000
000000
ENDCHAR

STARTCHAR onx101
ENCODING 101
SWIDTH 600 0
DWIDTH 18 0
BBX 18 30 0 -6
BITMAP
000000
000000
000000
000000
000000
000000
000000
000000
000000
000000
01E000
07F800
0E1C00
180600
180600
300300
3FFF00
3FFF00
300000
180000
180000
0E0600
07FE00
01F800
000000
000000
000000
000000
000000
000000
ENDCHAR

STARTCHAR onx102
ENCODING 102
SWIDTH 600 0
DWIDTH 18 0
BBX 18 30 0 -6
BITMAP
000000
000000
000000
000000
000000
007C00
01FE00
018300
030700
030700
1FE200
1FE000
030000
030000
030000
030000
030000
030000
030000
030000
030000
030000
3FF000
3FF000
000000
000000
000000
000000
000000
000000
ENDCHAR

STARTCHAR onx103
ENCODING 103
SWIDTH 600 0
DWIDTH 18 0
BBX 18 30 0 -6
BITMAP
000000
000000
000000
000000
000000
000000
000000
000000
000000
000000
03C700
0FEF80
0C3980
181000
181800
181800
0C3000
0FF000
0DC000
180000
180000
0DF800
1FFE00
380700
300300
300300
380700
1FFE00
07F800
000000
ENDCHAR

STARTCHAR onx104
ENCODING 104
SWIDTH 600 0
DWIDTH 18 0
BBX 18 30 0 -6
BITMAP
000000
000000
000000
000000
000000
780000
780000
180000
180000
180000
18F000
19FC00
1B0C00
1E0600
1C0600
180600
180600
180600
180600
180600
180600
180600
7E1F80
7E1F80
000000
000000
000000
000000
000000
000000
ENDCHAR

STARTCHAR onx105
ENCODING 105
SWIDTH 600 0
DWIDTH 18 0
BBX 18 30 0 -6
BITMAP
000000
000000
000000
000000
00C000
01E000
01E000
00C000
000000
000000
0FE000
0FE000
006000
006000
006000
006000
006000
006000
006000
006000
006000
006000
1FFF00
1FFF00
000000
000000
000000
000000
000000
000000
ENDCHAR

STARTCHAR onx106
ENCODING 106
SWIDTH 600 0
DWIDTH 18 0
BBX 18 30 0 -6
BITMAP
000000
000000
000000
000000
003000
007800
007800
003000
000000
000000
01F800
01F800
001800
001800
001800
001800
001800
001800
001800
001800
001800
001800
0C1800
1E1800
1C1800
181800
0C3000
0FF000
03C000
000000
ENDCHAR

STARTCHAR onx107
ENCODING 107
SWIDTH 600 0
DWIDTH 18 0
BBX 18 30 0 -6
BITMAP
000000
000000
000000
000000
000000
780000
780000
180000
180000
180000
183F00
183F00
181800
183000
186000
18C000
19E000
1B3000
1E3000
1C1800
181800
180C00
7E3F00
7E3F00
000000
000000
000000
000000
000000
000000
ENDCHAR

STARTCHAR onx108
ENCODING 108
SWIDTH 600 0
DWIDTH 18 0
BBX 18 30 0 -6
BITMAP
000000
000000
000000
000000
000000
1FE000
1FE000
006000
006000
006000
006000
006000
006000
006000
006000
006000
006000
006000
006000
006000
006000
006000
1FFF00
1FFF00
000000
000000
000000
000000
000000
000000
ENDCHAR

STARTCHAR onx109
ENCODING 109
SWIDTH 600 0
DWIDTH 18 0
BBX 18 30 0 -6
BITMAP
000000
000000
000000
000000
000000
000000
000000
000000
000000
000000
F38E00
F7DF00
3CF300
38E300
30C300
30C300
30C300
30C300
30C300
30C300
30C300
30C300
F9E7C0
F9E7C0
000000
000000
000000
000000
000000
000000
ENDCHAR

STARTCHAR onx110
ENCODING 110
SWIDTH 600 0
DWIDTH 18 0
BBX 18 30 0 -6
BITMAP
000000
000000
000000
000000
000000
000000
000000
000000
000000
000000
78F000
79FC00
1B0C00
1E0600
1C0600
180600
180600
180600
180600
180600
180600
180600
7E1F80
7E1F80
000000
000000
000000
000000
000000
000000
ENDCHAR

STARTCHAR onx111
ENCODING 111
SWIDTH 600 0
DWIDTH 18 0
BBX 18 30 0 -6
BITMAP
000000
000000
000000
000000
000000
000000
000000
000000
000000
000000
01E000
07F800
0E1C00
180600
180600
300300
300300
300300
300300
180600
180600
0E1C00
07F800
01E000
000000
000000
000000
000000
000000
000000
ENDCHAR

STARTCHAR onx112
ENCODING 112
SWIDTH 600 0
DWIDTH 18 0
BBX 18 30 0 -6
BITMAP
000000
000000
000000
000000
000000
000000
000000
000000
000000
000000
3CF000
3DFC00
0F0E00
0E0600
0C0300
0C0300
0C0300
0C0300
0C0300
0C0300
0E0600
0F0E00
0DFC00
0CF000
0C0000
0C0000
0C0000
3F8000
3F8000
000000
ENDCHAR

STARTCHAR onx113
ENCODING 113
SWIDTH 600 0
DWIDTH 18 0
BBX 18 30 0 -6
BITMAP
000000
000000
000000
000000
000000
000000
000000
000000
000000
000000
03CC00
0FEC00
1C3C00
181C00
300C00
300C00
300C00
300C00
300C00
300C00
181C00
1C3C00
0FEC00
03CC00
000C00
000C00
000C00
003F00
003F00
000000
ENDCHAR

STARTCHAR onx114
ENCODING 114
SWIDTH 600 0
DWIDTH 18 0
BBX 18 30 0 -6
BITMAP
000000
000000
000000
000000
000000
000000
000000
000000
000000
000000
3E1E00
3E7F00
06E180
078380
070780
060300
060000
060000
060000
060000
060000
060000
3FE000
3FE000
000000
000000
000000
000000
000000
000000
ENDCHAR

STARTCHAR onx115
ENCODING 115
SWIDTH 600 0
DWIDTH 18 0
BBX 18 30 0 -6
BITMAP
000000
000000
000000
000000
000000
000000
000000
000000
000000
000000
03EC00
07FC00
0C1C00
0C0C00
0C0000
078000
03F000
007C00
000E00
180600
1C0600
1E0C00
1BFC00
19F000
000000
000000
000000
000000
000000
000000
ENDCHAR

STARTCHAR onx116
ENCODING 116
SWIDTH 600 0
DWIDTH 18 0
BBX 18 30 0 -6
BITMAP
000000
000000
000000
000000
000000
060000
060000
060000
060000
0C0000
3FFC00
3FFC00
060000
060000
060000
060000
060000
060000
060600
060600
060600
030C00
03FC00
00F000
000000
000000
000000
000000
000000
000000
ENDCHAR

STARTCHAR onx117
ENCODING 117
SWIDTH 600 0
DWIDTH 18 0
BBX 18 30 0 -6
BITMAP
000000
000000
000000
000000
000000
000000
000000
000000
000000
000000
783C00
783C00
180C00
180C00
180C00
180C00
180C00
180C00
180C00
180C00
181C00
0C3C00
0FEF80
03CF80
000000
000000
000000
000000
000000
000000
ENDCHAR

STARTCHAR onx118
ENCODING 118
SWIDTH 600 0
DWIDTH 18 0
BBX 18 30 0 -6
BITMAP
000000
000000
000000
000000
000000
000000
000000
000000
000000
000000
7E1F80
7E1F80
180600
180600
0C0C00
0C0C00
061800
061800
033000
033000
01E000
01E000
00C000
00C000
000000
000000
000000
000000
000000
000000
ENDCHAR

STARTCHAR onx119
ENCODING 119
SWIDTH 600 0
DWIDTH 18 0
BBX 18 30 0 -6
BITMAP
000000
000000
000000
000000
000000
000000
000000
000000
000000
000000
FC0FC0
FC0FC0
300300
30C300
30C300
19E600
19E600
1B3600
1B3600
1B3600
0E1C00
0E1C00
0C0C00
0C0C00
000000
000000
000000
000000
000000
000000
ENDCHAR

STARTCHAR onx120
ENCODING 120
SWIDTH 600 0
DWIDTH 18 0
BBX 18 30 0 -6
BITMAP
000000
000000
000000
000000
000000
000000
000000
000000
000000
000000
3E1F00
3E1F00
0C0C00
061800
033000
01E000
00C000
01E000
033000
061800
0C0C00
0C0C00
3E1F00
3E1F00
000000
000000
000000
000000
000000
000000
ENDCHAR

STARTCHAR onx121
ENCODING 121
SWIDTH 600 0
DWIDTH 18 0
BBX 18 30 0 -6
BITMAP
000000
000000
000000
000000
000000
000000
000000
000000
000000
000000
3E0F80
3E0F80
0C0600
0C0600
060C00
060C00
030C00
031800
019800
01B000
00F000
00E000
006000
106000
38C000
38C000
318000
1F8000
0F0000
000000
ENDCHAR

STARTCHAR onx122
ENCODING 122
SWIDTH 600 0
DWIDTH 18 0
BBX 18 30 0 -6
BITMAP
000000
000000
000000
000000
000000
000000
000000
000000
000000
000000
1FFE00
1FFE00
180C00
181800
183000
006000
00C000
018000
030000
060600
0C0600
180600
3FFE00
3FFE00
000000
000000
000000
000000
000000
000000
ENDCHAR

STARTCHAR onx123
ENCODING 123
SWIDTH 600 0
DWIDTH 18 0
BBX 18 30 0 -6
BITMAP
000000
000000
000000
001800
003000
006000
006000
00C000
00C000
00C000
00C000
00C000
00C000
018000
030000
060000
030000
018000
00C000
00C000
00C000
00C000
00C000
00C000
006000
006000
003000
001800
000000
000000
ENDCHAR

STARTCHAR onx124
ENCODING 124
SWIDTH 600 0
DWIDTH 18 0
BBX 18 30 0 -6
BITMAP
000000
000000
000000
00C000
00C000
00C000
00C000
00C000
00C000
00C000
00C000
00C000
00C000
00C000
00C000
00C000
00C000
00C000
00C000
00C000
00C000
00C000
00C000
00C000
00C000
00C000
00C000
00C000
000000
000000
ENDCHAR

STARTCHAR onx125
ENCODING 125
SWIDTH 600 0
DWIDTH 18 0
BBX 18 30 0 -6
BITMAP
000000
000000
000000
060000
030000
018000
018000
00C000
00C000
00C000
00C000
00C000
00C000
006000
003000
001800
003000
006000
00C000
00C000
00C000
00C000
00C000
00C000
018000
018000
030000
060000
000000
000000
ENDCHAR

STARTCHAR onx126
ENCODING 126
SWIDTH 600 0
DWIDTH 18 0
BBX 18 30 0 -6
BITMAP
000000
000000
000000
000000
070600
0F8C00
18F800
307000
000000
000000
000000
000000
000000
000000
000000
000000
000000
000000
000000
000000
000000
000000
000000
000000
000000
000000
000000
000000
000000
000000
ENDCHAR

STARTCHAR onx127
ENCODING 127
SWIDTH 600 0
DWIDTH 18 0
BBX 18 30 0 -6
BITMAP
FFFFC0
FFFFC0
FFFFC0
FFFFC0
FFFFC0
FFFFC0
FFFFC0
FFFFC0
FFFFC0
FFFFC0
FFFFC0
FFFFC0
FFFFC0
FFFFC0
FFFFC0
FFFFC0
FFFFC0
FFFFC0
FFFFC0
FFFFC0
FFFFC0
FFFFC0
FFFFC0
FFFFC0
FFFFC0
FFFFC0
FFFFC0
FFFFC0
FFFFC0
FFFFC0
ENDCHAR

STARTCHAR onx128
ENCODING 128
SWIDTH 600 0
DWIDTH 18 0
BBX 18 30 0 -6
BITMAP
000000
000000
000000
000000
000000
000000
000000
000000
000000
000000
000000
000000
000000
000000
000000
000000
000000
000000
000000
000000
000000
000000
000000
000000
000000
000000
000000
000000
000000
000000
ENDCHAR

STARTCHAR onx129
ENCODING 129
SWIDTH 600 0
DWIDTH 18 0
BBX 18 30 0 -6
BITMAP
000000
000000
000000
000000
000000
000000
000000
000000
000000
000000
000000
000000
000000
000000
000000
000000
000000
000000
000000
000000
000000
000000
000000
000000
000000
000000
000000
000000
000000
000000
ENDCHAR

STARTCHAR onx130
ENCODING 130
SWIDTH 600 0
DWIDTH 18 0
BBX 18 30 0 -6
BITMAP
000000
000000
000000
000000
000000
000000
000000
000000
000000
000000
000000
000000
000000
000000
000000
000000
000000
000000
000000
000000
000000
000000
000000
000000
000000
000000
000000
000000
000000
000000
ENDCHAR

STARTCHAR onx131
ENCODING 131
SWIDTH 600 0
DWIDTH 18 0
BBX 18 30 0 -6
BITMAP
000000
000000
000000
000000
000000
000000
000000
000000
000000
000000
000000
000000
000000
000000
000000
000000
000000
000000
000000
000000
000000
000000
000000
000000
000000
000000
000000
000000
000000
000000
ENDCHAR

STARTCHAR onx132
ENCODING 132
SWIDTH 600 0
DWIDTH 18 0
BBX 18 30 0 -6
BITMAP
000000
000000
000000
000000
000000
000000
000000
000000
000000
000000
000000
000000
000000
000000
000000
000000
000000
000000
000000
000000
000000
000000
000000
000000
000000
000000
000000
000000
000000
000000
ENDCHAR

STARTCHAR onx133
ENCODING 133
SWIDTH 600 0
DWIDTH 18 0
BBX 18 30 0 -6
BITMAP
000000
000000
000000
000000
000000
000000
000000
000000
000000
000000
000000
000000
000000
000000
000000
000000
000000
000000
000000
000000
000000
000000
000000
000000
000000
000000
000000
000000
000000
000000
ENDCHAR

STARTCHAR onx134
ENCODING 134
SWIDTH 600 0
DWIDTH 18 0
BBX 18 30 0 -6
BITMAP
000000
000000
000000
000000
000000
000000
000000
000000
000000
000000
000000
000000
000000
000000
000000
000000
000000
000000
000000
000000
000000
000000
000000
000000
000000
000000
000000
000000
000000
000000
ENDCHAR

STARTCHAR onx135
ENCODING 135
SWIDTH 600 0
DWIDTH 18 0
BBX 18 30 0 -6
BITMAP
000000
000000
000000
000000
000000
000000
000000
000000
000000
000000
000000
000000
000000
000000
000000
000000
000000
000000
000000
000000
000000
000000
000000
000000
000000
000000
000000
000000
000000
000000
ENDCHAR

STARTCHAR onx136
ENCODING 136
SWIDTH 600 0
DWIDTH 18 0
BBX 18 30 0 -6
BITMAP
000000
000000
000000
000000
000000
000000
000000
000000
000000
000000
000000
000000
000000
000000
000000
000000
000000
000000
000000
000000
000000
000000
000000
000000
000000
000000
000000
000000
000000
000000
ENDCHAR

STARTCHAR onx137
ENCODING 137
SWIDTH 600 0
DWIDTH 18 0
BBX 18 30 0 -6
BITMAP
000000
000000
000000
000000
000000
000000
000000
000000
000000
000000
000000
000000
000000
000000
000000
000000
000000
000000
000000
000000
000000
000000
000000
000000
000000
000000
000000
000000
000000
000000
ENDCHAR

STARTCHAR onx138
ENCODING 138
SWIDTH 600 0
DWIDTH 18 0
BBX 18 30 0 -6
BITMAP
000000
000000
000000
000000
000000
000000
000000
000000
000000
000000
000000
000000
000000
000000
000000
000000
000000
000000
000000
000000
000000
000000
000000
000000
000000
000000
000000
000000
000000
000000
ENDCHAR

STARTCHAR onx139
ENCODING 139
SWIDTH 600 0
DWIDTH 18 0
BBX 18 30 0 -6
BITMAP
000000
000000
000000
000000
000000
000000
000000
000000
000000
000000
000000
000000
000000
000000
000000
000000
000000
000000
000000
000000
000000
000000
000000
000000
000000
000000
000000
000000
000000
000000
ENDCHAR

STARTCHAR onx140
ENCODING 140
SWIDTH 600 0
DWIDTH 18 0
BBX 18 30 0 -6
BITMAP
000000
000000
000000
000000
000000
000000
000000
000000
000000
000000
000000
000000
000000
000000
000000
000000
000000
000000
000000
000000
000000
000000
000000
000000
000000
000000
000000
000000
000000
000000
ENDCHAR

STARTCHAR onx141
ENCODING 141
SWIDTH 600 0
DWIDTH 18 0
BBX 18 30 0 -6
BITMAP
000000
000000
000000
000000
000000
000000
000000
000000
000000
000000
000000
000000
000000
000000
000000
000000
000000
000000
000000
000000
000000
000000
000000
000000
000000
000000
000000
000000
000000
000000
ENDCHAR

STARTCHAR onx142
ENCODING 142
SWIDTH 600 0
DWIDTH 18 0
BBX 18 30 0 -6
BITMAP
000000
000000
000000
000000
000000
000000
000000
000000
000000
000000
000000
000000
000000
000000
000000
000000
000000
000000
000000
000000
000000
000000
000000
000000
000000
000000
000000
000000
000000
000000
ENDCHAR

STARTCHAR onx143
ENCODING 143
SWIDTH 600 0
DWIDTH 18 0
BBX 18 30 0 -6
BITMAP
000000
000000
000000
000000
000000
000000
000000
000000
000000
000000
000000
000000
000000
000000
000000
000000
000000
000000
000000
000000
000000
000000
000000
000000
000000
000000
000000
000000
000000
000000
ENDCHAR

STARTCHAR onx144
ENCODING 144
SWIDTH 600 0
DWIDTH 18 0
BBX 18 30 0 -6
BITMAP
000000
000000
000000
000000
000000
000000
000000
000000
000000
000000
000000
000000
000000
000000
000000
000000
000000
000000
000000
000000
000000
000000
000000
000000
000000
000000
000000
000000
000000
000000
ENDCHAR

STARTCHAR onx145
ENCODING 145
SWIDTH 600 0
DWIDTH 18 0
BBX 18 30 0 -6
BITMAP
000000
000000
000000
000000
000000
000000
000000
000000
000000
000000
000000
000000
000000
000000
000000
000000
000000
000000
000000
000000
000000
000000
000000
000000
000000
000000
000000
000000
000000
000000
ENDCHAR

STARTCHAR onx146
ENCODING 146
SWIDTH 600 0
DWIDTH 18 0
BBX 18 30 0 -6
BITMAP
000000
000000
000000
000000
000000
000000
000000
000000
000000
000000
000000
000000
000000
000000
000000
000000
000000
000000
000000
000000
000000
000000
000000
000000
000000
000000
000000
000000
000000
000000
ENDCHAR

STARTCHAR onx147
ENCODING 147
SWIDTH 600 0
DWIDTH 18 0
BBX 18 30 0 -6
BITMAP
000000
000000
000000
000000
000000
000000
000000
000000
000000
000000
000000
000000
000000
000000
000000
000000
000000
000000
000000
000000
000000
000000
000000
000000
000000
000000
000000
000000
000000
000000
ENDCHAR

STARTCHAR onx148
ENCODING 148
SWIDTH 600 0
DWIDTH 18 0
BBX 18 30 0 -6
BITMAP
000000
000000
000000
000000
000000
000000
000000
000000
000000
000000
000000
000000
000000
000000
000000
000000
000000
000000
000000
000000
000000
000000
000000
000000
000000
000000
000000
000000
000000
000000
ENDCHAR

STARTCHAR onx149
ENCODING 149
SWIDTH 600 0
DWIDTH 18 0
BBX 18 30 0 -6
BITMAP
000000
000000
000000
000000
000000
000000
000000
000000
000000
000000
000000
000000
000000
000000
000000
000000
000000
000000
000000
000000
000000
000000
000000
000000
000000
000000
000000
000000
000000
000000
ENDCHAR

STARTCHAR onx150
ENCODING 150
SWIDTH 600 0
DWIDTH 18 0
BBX 18 30 0 -6
BITMAP
000000
000000
000000
000000
000000
000000
000000
000000
000000
000000
000000
000000
000000
000000
000000
000000
000000
000000
000000
000000
000000
000000
000000
000000
000000
000000
000000
000000
000000
000000
ENDCHAR

STARTCHAR onx151
ENCODING 151
SWIDTH 600 0
DWIDTH 18 0
BBX 18 30 0 -6
BITMAP
000000
000000
000000
000000
000000
000000
000000
000000
000000
000000
000000
000000
000000
000000
000000
000000
000000
000000
000000
000000
000000
000000
000000
000000
000000
000000
000000
000000
000000
000000
ENDCHAR

STARTCHAR onx152
ENCODING 152
SWIDTH 600 0
DWIDTH 18 0
BBX 18 30 0 -6
BITMAP
000000
000000
000000
000000
000000
000000
000000
000000
000000
000000
000000
000000
000000
000000
000000
000000
000000
000000
000000
000000
000000
000000
000000
000000
000000
000000
000000
000000
000000
000000
ENDCHAR

STARTCHAR onx153
ENCODING 153
SWIDTH 600 0
DWIDTH 18 0
BBX 18 30 0 -6
BITMAP
000000
000000
000000
000000
000000
000000
000000
000000
000000
000000
000000
000000
000000
000000
000000
000000
000000
000000
000000
000000
000000
000000
000000
000000
000000
000000
000000
000000
000000
000000
ENDCHAR

STARTCHAR onx154
ENCODING 154
SWIDTH 600 0
DWIDTH 18 0
BBX 18 30 0 -6
BITMAP
000000
000000
000000
000000
000000
000000
000000
000000
000000
000000
000000
000000
000000
000000
000000
000000
000000
000000
000000
000000
000000
000000
000000
000000
000000
000000
000000
000000
000000
000000
ENDCHAR

STARTCHAR onx155
ENCODING 155
SWIDTH 600 0
DWIDTH 18 0
BBX 18 30 0 -6
BITMAP
000000
000000
000000
000000
000000
000000
000000
000000
000000
000000
000000
000000
000000
000000
000000
000000
000000
000000
000000
000000
000000
000000
000000
000000
000000
000000
000000
000000
000000
000000
ENDCHAR

STARTCHAR onx156
ENCODING 156
SWIDTH 600 0
DWIDTH 18 0
BBX 18 30 0 -6
BITMAP
000000
000000
000000
000000
000000
000000
000000
000000
000000
000000
000000
000000
000000
000000
000000
000000
000000
000000
000000
000000
000000
000000
000000
000000
000000
000000
000000
000000
000000
000000
ENDCHAR

STARTCHAR onx157
ENCODING 157
SWIDTH 600 0
DWIDTH 18 0
BBX 18 30 0 -6
BITMAP
000000
000000
000000
000000
000000
000000
000000
000000
000000
000000
000000
000000
000000
000000
000000
000000
000000
000000
000000
000000
000000
000000
000000
000000
000000
000000
000000
000000
000000
000000
ENDCHAR

STARTCHAR onx158
ENCODING 158
SWIDTH 600 0
DWIDTH 18 0
BBX 18 30 0 -6
BITMAP
000000
000000
000000
000000
000000
000000
000000
000000
000000
000000
000000
000000
000000
000000
000000
000000
000000
000000
000000
000000
000000
000000
000000
000000
000000
000000
000000
000000
000000
000000
ENDCHAR

STARTCHAR onx159
ENCODING 159
SWIDTH 600 0
DWIDTH 18 0
BBX 18 30 0 -6
BITMAP
000000
000000
000000
000000
000000
000000
000000
000000
000000
000000
000000
000000
000000
000000
000000
000000
000000
000000
000000
000000
000000
000000
000000
000000
000000
000000
000000
000000
000000
000000
ENDCHAR

STARTCHAR onx160
ENCODING 160
SWIDTH 600 0
DWIDTH 18 0
BBX 18 30 0 -6
BITMAP
000000
000000
000000
000000
000000
000000
000000
000000
000000
000000
000000
000000
000000
000000
000000
000000
000000
000000
000000
000000
000000
000000
000000
000000
000000
000000
000000
000000
000000
000000
ENDCHAR

STARTCHAR onx161
ENCODING 161
SWIDTH 600 0
DWIDTH 18 0
BBX 18 30 0 -6
BITMAP
000000
000000
000000
000000
000000
000000
000000
000000
000000
000000
000000
000000
000000
000000
000000
000000
000000
000000
000000
000000
000000
000000
000000
000000
000000
000000
000000
000000
000000
000000
ENDCHAR

STARTCHAR onx162
ENCODING 162
SWIDTH 600 0
DWIDTH 18 0
BBX 18 30 0 -6
BITMAP
000000
000000
000000
000000
000000
000000
000000
000000
000000
000000
000000
000000
000000
000000
000000
000000
000000
000000
000000
000000
000000
000000
000000
000000
000000
000000
000000
000000
000000
000000
ENDCHAR

STARTCHAR onx163
ENCODING 163
SWIDTH 600 0
DWIDTH 18 0
BBX 18 30 0 -6
BITMAP
000000
000000
000000
000000
000000
000000
000000
000000
000000
000000
000000
000000
000000
000000
000000
000000
000000
000000
000000
000000
000000
000000
000000
000000
000000
000000
000000
000000
000000
000000
ENDCHAR

STARTCHAR onx164
ENCODING 164
SWIDTH 600 0
DWIDTH 18 0
BBX 18 30 0 -6
BITMAP
000000
000000
000000
000000
000000
000000
000000
000000
000000
000000
000000
000000
000000
000000
000000
000000
000000
000000
000000
000000
000000
000000
000000
000000
000000
000000
000000
000000
000000
000000
ENDCHAR

STARTCHAR onx165
ENCODING 165
SWIDTH 600 0
DWIDTH 18 0
BBX 18 30 0 -6
BITMAP
000000
000000
000000
000000
000000
000000
000000
000000
000000
000000
000000
000000
000000
000000
000000
000000
000000
000000
000000
000000
000000
000000
000000
000000
000000
000000
000000
000000
000000
000000
ENDCHAR

STARTCHAR onx166
ENCODING 166
SWIDTH 600 0
DWIDTH 18 0
BBX 18 30 0 -6
BITMAP
000000
000000
000000
000000
000000
000000
000000
000000
000000
000000
000000
000000
000000
000000
000000
000000
000000
000000
000000
000000
000000
000000
000000
000000
000000
000000
000000
000000
000000
000000
ENDCHAR

STARTCHAR onx167
ENCODING 167
SWIDTH 600 0
DWIDTH 18 0
BBX 18 30 0 -6
BITMAP
000000
000000
000000
000000
000000
000000
000000
000000
000000
000000
000000
000000
000000
000000
000000
000000
000000
000000
000000
000000
000000
000000
000000
000000
000000
000000
000000
000000
000000
000000
ENDCHAR

STARTCHAR onx168
ENCODING 168
SWIDTH 600 0
DWIDTH 18 0
BBX 18 30 0 -6
BITMAP
000000
000000
003C00
003800
007000
006000
00C000
008000
000000
000000
000000
000000
000000
000000
000000
000000
000000
000000
000000
000000
000000
000000
000000
000000
000000
000000
000000
000000
000000
000000
ENDCHAR

STARTCHAR onx169
ENCODING 169
SWIDTH 600 0
DWIDTH 18 0
BBX 18 30 0 -6
BITMAP
000000
000000
0F0000
070000
038000
018000
00C000
004000
000000
000000
000000
000000
000000
000000
000000
000000
000000
000000
000000
000000
000000
000000
000000
000000
000000
000000
000000
000000
000000
000000
ENDCHAR

STARTCHAR onx170
ENCODING 170
SWIDTH 600 0
DWIDTH 18 0
BBX 18 30 0 -6
BITMAP
000000
000000
004000
00E000
01B000
031800
060C00
0C0600
000000
000000
000000
000000
000000
000000
000000
000000
000000
000000
000000
000000
000000
000000
000000
000000
000000
000000
000000
000000
000000
000000
ENDCHAR

STARTCHAR onx171
ENCODING 171
SWIDTH 600 0
DWIDTH 18 0
BBX 18 30 0 -6
BITMAP
000000
000000
000000
000000
061800
0F3C00
0F3C00
061800
000000
000000
000000
000000
000000
000000
000000
000000
000000
000000
000000
000000
000000
000000
000000
000000
000000
000000
000000
000000
000000
000000
ENDCHAR

STARTCHAR onx172
ENCODING 172
SWIDTH 600 0
DWIDTH 18 0
BBX 18 30 0 -6
BITMAP
000000
000000
000000
000000
070600
0F8C00
18F800
307000
000000
000000
000000
000000
000000
000000
000000
000000
000000
000000
000000
000000
000000
000000
000000
000000
000000
000000
000000
000000
000000
000000
ENDCHAR

STARTCHAR onx173
ENCODING 173
SWIDTH 600 0
DWIDTH 18 0
BBX 18 30 0 -6
BITMAP
000000
000000
000000
000000
000000
000000
000000
000000
000000
000000
000000
000000
000000
000000
000000
000000
000000
000000
000000
000000
000000
000000
000000
000000
000000
000000
000000
000000
000000
000000
ENDCHAR

STARTCHAR onx174
ENCODING 174
SWIDTH 600 0
DWIDTH 18 0
BBX 18 30 0 -6
BITMAP
000000
000000
000000
000000
000000
000000
000000
000000
000000
000000
000000
000000
000000
000000
000000
000000
000000
000000
000000
000000
000000
000000
000000
000000
000000
000000
000000
000000
000000
000000
ENDCHAR

STARTCHAR onx175
ENCODING 175
SWIDTH 600 0
DWIDTH 18 0
BBX 18 30 0 -6
BITMAP
000000
000000
000000
000000
000000
00F000
03F800
031C00
061C00
060800
060000
030000
1FE000
030000
030000
1FF000
018000
018000
078000
0CC000
18C600
19E600
1F3C00
0E1800
000000
000000
000000
000000
000000
000000
ENDCHAR

STARTCHAR onx176
ENCODING 176
SWIDTH 600 0
DWIDTH 18 0
BBX 18 30 0 -6
BITMAP
FFFFC0
FFFFC0
000000
000000
000000
000000
000000
000000
000000
000000
000000
000000
000000
000000
000000
000000
000000
000000
000000
000000
000000
000000
000000
000000
000000
000000
000000
000000
000000
000000
ENDCHAR

STARTCHAR onx177
ENCODING 177
SWIDTH 600 0
DWIDTH 18 0
BBX 18 30 0 -6
BITMAP
000000
000000
000000
000000
000000
000000
000000
000000
000000
000000
000000
000000
000000
000000
000000
000000
000000
000000
000000
000000
000000
000000
000000
000000
000000
000000
000000
000000
000000
000000
ENDCHAR

STARTCHAR onx178
ENCODING 178
SWIDTH 600 0
DWIDTH 18 0
BBX 18 30 0 -6
BITMAP
000000
000000
000000
000000
000000
000000
000000
000000
000000
000000
000000
000000
000000
000000
000000
000000
000000
000000
000000
000000
000000
000000
000000
000000
000000
000000
000000
000000
000000
000000
ENDCHAR

STARTCHAR onx179
ENCODING 179
SWIDTH 600 0
DWIDTH 18 0
BBX 18 30 0 -6
BITMAP
000000
000000
000000
000000
01E000
07F800
061800
0C0C00
0C0C00
0C0C00
0C0C00
061800
07F800
01E000
000000
000000
000000
000000
000000
000000
000000
000000
000000
000000
000000
000000
000000
000000
000000
000000
ENDCHAR

STARTCHAR onx180
ENCODING 180
SWIDTH 600 0
DWIDTH 18 0
BBX 18 30 0 -6
BITMAP
000000
000000
000000
000000
000000
000000
000000
000000
000000
000000
000000
000000
000000
000000
000000
000000
000000
000000
000000
000000
000000
000000
000000
000000
000000
000000
000000
000000
000000
000000
ENDCHAR

STARTCHAR onx181
ENCODING 181
SWIDTH 600 0
DWIDTH 18 0
BBX 18 30 0 -6
BITMAP
000000
000000
000000
000000
000000
000000
000000
000000
000000
000000
01F000
07FC00
0E0C00
0C0600
180E00
180C00
180000
180000
180000
180000
0C0600
0E0E00
07FC00
01F000
008000
00E000
003000
033000
01E000
000000
ENDCHAR

STARTCHAR onx182
ENCODING 182
SWIDTH 600 0
DWIDTH 18 0
BBX 18 30 0 -6
BITMAP
070600
0F8C00
18F800
006000
000000
7C1F80
7C1F80
1E0600
1A0600
1B0600
1B0600
198600
198600
18C600
18C600
186600
186600
183600
183600
181600
181E00
180E00
7E0E00
7E0600
000000
000000
000000
000000
000000
000000
ENDCHAR

STARTCHAR onx183
ENCODING 183
SWIDTH 600 0
DWIDTH 18 0
BBX 18 30 0 -6
BITMAP
000000
000000
000000
000000
070600
0F8C00
18F800
307000
000000
000000
78F000
79FC00
1B0C00
1E0600
1C0600
180600
180600
180600
180600
180600
180600
180600
7E1F80
7E1F80
000000
000000
000000
000000
000000
000000
ENDCHAR

STARTCHAR onx184
ENCODING 184
SWIDTH 600 0
DWIDTH 18 0
BBX 18 30 0 -6
BITMAP
000000
000000
000000
000000
000000
000000
000000
000000
000000
000000
00C000
01E000
01E000
00C000
000000
000000
00C000
00C000
00C000
00C000
00C000
00C000
00C000
00C000
00C000
00C000
00C000
00C000
00C000
000000
ENDCHAR

STARTCHAR onx185
ENCODING 185
SWIDTH 600 0
DWIDTH 18 0
BBX 18 30 0 -6
BITMAP
000000
000000
000000
000000
000000
000000
000000
000000
000000
000000
00C000
01E000
01E000
00C000
000000
000000
00C000
00C000
00C000
018000
030000
060000
060800
0C1C00
0C1C00
0C0C00
061800
07F000
01E000
000000
ENDCHAR

STARTCHAR onx186
ENCODING 186
SWIDTH 600 0
DWIDTH 18 0
BBX 18 30 0 -6
BITMAP
000000
000000
300300
180600
180600
0DEC00
07F800
0E1C00
180600
180600
180600
300300
300300
300300
300300
300300
300300
300300
180600
180600
180600
0E1C00
07F800
0DEC00
180600
180600
300300
000000
000000
000000
ENDCHAR

STARTCHAR onx187
ENCODING 187
SWIDTH 600 0
DWIDTH 18 0
BBX 18 30 0 -6
BITMAP
000000
000000
000000
000000
000000
00F000
03F800
031C00
061C00
060800
060000
030000
030000
0FF800
0FF800
018000
018000
00C000
07C000
0CC000
18C600
19E600
1F3C00
0E1800
000000
000000
000000
000000
000000
000000
ENDCHAR

STARTCHAR onx188
ENCODING 188
SWIDTH 600 0
DWIDTH 18 0
BBX 18 30 0 -6
BITMAP
000000
000000
000000
000000
000000
000000
000000
000000
000000
000000
000000
000000
000000
000000
000000
000000
000000
000000
000000
000000
000000
000000
000000
000000
000000
000000
000000
000000
000000
000000
ENDCHAR

STARTCHAR onx189
ENCODING 189
SWIDTH 600 0
DWIDTH 18 0
BBX 18 30 0 -6
BITMAP
000000
000000
03E000
07F000
0E1800
0C3800
0C1000
060000
0F0000
1B8000
31C000
30E000
307000
183800
1C1C00
0E0E00
070600
038300
01C300
00E300
007600
003C00
001800
020C00
070C00
061C00
03F800
01F000
000000
000000
ENDCHAR

STARTCHAR onx190
ENCODING 190
SWIDTH 600 0
DWIDTH 18 0
BBX 18 30 0 -6
BITMAP
000000
000000
000000
000000
000000
000000
000000
000000
000000
000000
000000
000000
000000
000000
000000
000000
000000
000000
000000
000000
000000
000000
000000
000000
000000
000000
000000
000000
000000
000000
ENDCHAR

STARTCHAR onx191
ENCODING 191
SWIDTH 600 0
DWIDTH 18 0
BBX 18 30 0 -6
BITMAP
000000
000000
000000
000000
000000
000000
000000
000000
000000
000000
000000
000000
000000
000000
000000
000000
000000
000000
000000
000000
000000
000000
000000
000000
000000
000000
000000
000000
000000
000000
ENDCHAR

STARTCHAR onx192
ENCODING 192
SWIDTH 600 0
DWIDTH 18 0
BBX 18 30 0 -6
BITMAP
000000
000000
008000
01C000
036000
063000
0C1800
180C00
000000
000000
03E000
0FF800
1C1C00
180C00
000C00
01FC00
07FC00
1E0C00
180C00
300C00
301C00
387C80
1FEF80
078700
000000
000000
000000
000000
000000
000000
ENDCHAR

STARTCHAR onx193
ENCODING 193
SWIDTH 600 0
DWIDTH 18 0
BBX 18 30 0 -6
BITMAP
000000
000000
004000
00E000
01B000
031800
060C00
0C0600
000000
000000
01E000
07F800
0E1C00
180600
180600
300300
3FFF00
3FFF00
300000
180000
180000
0E0600
07FE00
01F800
000000
000000
000000
000000
000000
000000
ENDCHAR

STARTCHAR onx194
ENCODING 194
SWIDTH 600 0
DWIDTH 18 0
BBX 18 30 0 -6
BITMAP
000000
000000
004000
00E000
01B000
031800
060C00
0C0600
000000
000000
01E000
07F800
0E1C00
180600
180600
300300
300300
300300
300300
180600
180600
0E1C00
07F800
01E000
000000
000000
000000
000000
000000
000000
ENDCHAR

STARTCHAR onx195
ENCODING 195
SWIDTH 600 0
DWIDTH 18 0
BBX 18 30 0 -6
BITMAP
000000
000000
008000
01C000
036000
063000
0C1800
180C00
000000
000000
783C00
783C00
180C00
180C00
180C00
180C00
180C00
180C00
180C00
180C00
181C00
0C3C00
0FEF80
03CF80
000000
000000
000000
000000
000000
000000
ENDCHAR

STARTCHAR onx196
ENCODING 196
SWIDTH 600 0
DWIDTH 18 0
BBX 18 30 0 -6
BITMAP
000000
000000
007800
007000
00E000
00C000
018000
010000
000000
000000
03E000
0FF800
1C1C00
180C00
000C00
01FC00
07FC00
1E0C00
180C00
300C00
301C00
387C80
1FEF80
078700
000000
000000
000000
000000
000000
000000
ENDCHAR

STARTCHAR onx197
ENCODING 197
SWIDTH 600 0
DWIDTH 18 0
BBX 18 30 0 -6
BITMAP
000000
000000
003C00
003800
007000
006000
00C000
008000
000000
000000
01E000
07F800
0E1C00
180600
180600
300300
3FFF00
3FFF00
300000
180000
180000
0E0600
07FE00
01F800
000000
000000
000000
000000
000000
000000
ENDCHAR

STARTCHAR onx198
ENCODING 198
SWIDTH 600 0
DWIDTH 18 0
BBX 18 30 0 -6
BITMAP
000000
000000
007800
007000
00E000
00C000
018000
010000
000000
000000
01E000
07F800
0E1C00
180600
180600
300300
300300
300300
300300
180600
180600
0E1C00
07F800
01E000
000000
000000
000000
000000
000000
000000
ENDCHAR

STARTCHAR onx199
ENCODING 199
SWIDTH 600 0
DWIDTH 18 0
BBX 18 30 0 -6
BITMAP
000000
000000
007800
007000
00E000
00C000
018000
010000
000000
000000
783C00
783C00
180C00
180C00
180C00
180C00
180C00
180C00
180C00
180C00
181C00
0C3C00
0FEF80
03CF80
000000
000000
000000
000000
000000
000000
ENDCHAR

STARTCHAR onx200
ENCODING 200
SWIDTH 600 0
DWIDTH 18 0
BBX 18 30 0 -6
BITMAP
000000
000000
0F0000
070000
038000
018000
00C000
004000
000000
000000
03E000
0FF800
1C1C00
180C00
000C00
01FC00
07FC00
1E0C00
180C00
300C00
301C00
387C80
1FEF80
078700
000000
000000
000000
000000
000000
000000
ENDCHAR

STARTCHAR onx201
ENCODING 201
SWIDTH 600 0
DWIDTH 18 0
BBX 18 30 0 -6
BITMAP
000000
000000
0F0000
070000
038000
018000
00C000
004000
000000
000000
01E000
07F800
0E1C00
180600
180600
300300
3FFF00
3FFF00
300000
180000
180000
0E0600
07FE00
01F800
000000
000000
000000
000000
000000
000000
ENDCHAR

STARTCHAR onx202
ENCODING 202
SWIDTH 600 0
DWIDTH 18 0
BBX 18 30 0 -6
BITMAP
000000
000000
078000
038000
01C000
00C000
006000
002000
000000
000000
01E000
07F800
0E1C00
180600
180600
300300
300300
300300
300300
180600
180600
0E1C00
07F800
01E000
000000
000000
000000
000000
000000
000000
ENDCHAR

STARTCHAR onx203
ENCODING 203
SWIDTH 600 0
DWIDTH 18 0
BBX 18 30 0 -6
BITMAP
000000
000000
0F0000
070000
038000
018000
00C000
004000
000000
000000
783C00
783C00
180C00
180C00
180C00
180C00
180C00
180C00
180C00
180C00
181C00
0C3C00
0FEF80
03CF80
000000
000000
000000
000000
000000
000000
ENDCHAR

STARTCHAR onx204
ENCODING 204
SWIDTH 600 0
DWIDTH 18 0
BBX 18 30 0 -6
BITMAP
000000
000000
000000
000000
060C00
0F1E00
0F1E00
060C00
000000
000000
03E000
0FF800
1C1C00
180C00
000C00
01FC00
07FC00
1E0C00
180C00
300C00
301C00
387C80
1FEF80
078700
000000
000000
000000
000000
000000
000000
ENDCHAR

STARTCHAR onx205
ENCODING 205
SWIDTH 600 0
DWIDTH 18 0
BBX 18 30 0 -6
BITMAP
000000
000000
000000
000000
061800
0F3C00
0F3C00
061800
000000
000000
01E000
07F800
0E1C00
180600
180600
300300
3FFF00
3FFF00
300000
180000
180000
0E0600
07FE00
01F800
000000
000000
000000
000000
000000
000000
ENDCHAR

STARTCHAR onx206
ENCODING 206
SWIDTH 600 0
DWIDTH 18 0
BBX 18 30 0 -6
BITMAP
000000
000000
000000
000000
061800
0F3C00
0F3C00
061800
000000
000000
01E000
07F800
0E1C00
180600
180600
300300
300300
300300
300300
180600
180600
0E1C00
07F800
01E000
000000
000000
000000
000000
000000
000000
ENDCHAR

STARTCHAR onx207
ENCODING 207
SWIDTH 600 0
DWIDTH 18 0
BBX 18 30 0 -6
BITMAP
000000
000000
000000
000000
0C1800
1E3C00
1E3C00
0C1800
000000
000000
783C00
783C00
180C00
180C00
180C00
180C00
180C00
180C00
180C00
180C00
181C00
0C3C00
0FEF80
03CF80
000000
000000
000000
000000
000000
000000
ENDCHAR

STARTCHAR onx208
ENCODING 208
SWIDTH 600 0
DWIDTH 18 0
BBX 18 30 0 -6
BITMAP
000000
000000
000000
01E000
021000
021000
021000
01E000
01E000
033000
033000
033000
061800
061800
061800
0C0C00
0C0C00
0FFC00
0FFC00
180600
180600
180600
7E1F80
7E1F80
000000
000000
000000
000000
000000
000000
ENDCHAR

STARTCHAR onx209
ENCODING 209
SWIDTH 600 0
DWIDTH 18 0
BBX 18 30 0 -6
BITMAP
000000
000000
008000
01C000
036000
063000
0C1800
180C00
000000
000000
0FE000
0FE000
006000
006000
006000
006000
006000
006000
006000
006000
006000
006000
1FFF00
1FFF00
000000
000000
000000
000000
000000
000000
ENDCHAR

STARTCHAR onx210
ENCODING 210
SWIDTH 600 0
DWIDTH 18 0
BBX 18 30 0 -6
BITMAP
000000
000000
000600
000600
000C00
01EC00
07F800
0E1C00
183600
183600
186600
306300
306300
30C300
30C300
30C300
318300
318300
198600
1B0600
1B0600
0E1C00
07F800
0DE000
0C0000
180000
180000
000000
000000
000000
ENDCHAR

STARTCHAR onx211
ENCODING 211
SWIDTH 600 0
DWIDTH 18 0
BBX 18 30 0 -6
BITMAP
000000
000000
000000
000000
000000
03FF80
03FF80
066180
066180
066000
0C6000
0C6000
0C6000
0C6200
1FFE00
1FFE00
186200
186000
306000
306000
306180
306180
FC7F80
FC7F80
000000
000000
000000
000000
000000
000000
ENDCHAR

STARTCHAR onx212
ENCODING 212
SWIDTH 600 0
DWIDTH 18 0
BBX 18 30 0 -6
BITMAP
000000
000000
000000
01E000
021000
021000
021000
01E000
000000
000000
03E000
0FF800
1C1C00
180C00
000C00
01FC00
07FC00
1E0C00
180C00
300C00
301C00
387C80
1FEF80
078700
000000
000000
000000
000000
000000
000000
ENDCHAR

STARTCHAR onx213
ENCODING 213
SWIDTH 600 0
DWIDTH 18 0
BBX 18 30 0 -6
BITMAP
000000
000000
007800
007000
00E000
00C000
018000
010000
000000
000000
0FE000
0FE000
006000
006000
006000
006000
006000
006000
006000
006000
006000
006000
1FFF00
1FFF00
000000
000000
000000
000000
000000
000000
ENDCHAR

STARTCHAR onx214
ENCODING 214
SWIDTH 600 0
DWIDTH 18 0
BBX 18 30 0 -6
BITMAP
000000
000000
000000
000000
000000
000000
000300
000600
000600
000C00
01EC00
07F800
0E1C00
183600
186600
306300
30C300
30C300
318300
198600
1B0600
0E1C00
07F800
0DE000
0C0000
180000
180000
300000
000000
000000
ENDCHAR

STARTCHAR onx215
ENCODING 215
SWIDTH 600 0
DWIDTH 18 0
BBX 18 30 0 -6
BITMAP
000000
000000
000000
000000
000000
000000
000000
000000
000000
000000
0E1E00
1F3F00
31E380
20C180
00C180
07C180
1FFF80
38FF80
60C000
60C000
60C000
71E180
3F3F00
1E1E00
000000
000000
000000
000000
000000
000000
ENDCHAR

STARTCHAR onx216
ENCODING 216
SWIDTH 600 0
DWIDTH 18 0
BBX 18 30 0 -6
BITMAP
0C0C00
1E1E00
1E1E00
0C0C00
000000
00C000
00C000
01E000
01E000
012000
033000
033000
033000
061800
061800
061800
0C0C00
0FFC00
0FFC00
180600
180600
180600
7E1F80
7E1F80
000000
000000
000000
000000
000000
000000
ENDCHAR

STARTCHAR onx217
ENCODING 217
SWIDTH 600 0
DWIDTH 18 0
BBX 18 30 0 -6
BITMAP
000000
000000
0F0000
070000
038000
018000
00C000
004000
000000
000000
0FE000
0FE000
006000
006000
006000
006000
006000
006000
006000
006000
006000
006000
1FFF00
1FFF00
000000
000000
000000
000000
000000
000000
ENDCHAR

STARTCHAR onx218
ENCODING 218
SWIDTH 600 0
DWIDTH 18 0
BBX 18 30 0 -6
BITMAP
0C0C00
1E1E00
1E1E00
0C0C00
000000
01E000
07F800
0E1C00
180600
180600
180600
300300
300300
300300
300300
300300
300300
300300
180600
180600
180600
0E1C00
07F800
01E000
000000
000000
000000
000000
000000
000000
ENDCHAR

STARTCHAR onx219
ENCODING 219
SWIDTH 600 0
DWIDTH 18 0
BBX 18 30 0 -6
BITMAP
0C0C00
1E1E00
1E1E00
0C0C00
000000
7E1F80
7E1F80
180600
180600
180600
180600
180600
180600
180600
180600
180600
180600
180600
180600
180600
0C0C00
0E1C00
07F800
01E000
000000
000000
000000
000000
000000
000000
ENDCHAR

STARTCHAR onx220
ENCODING 220
SWIDTH 600 0
DWIDTH 18 0
BBX 18 30 0 -6
BITMAP
007000
006000
00C000
008000
000000
7FFF00
7FFF00
180300
180300
180300
180000
183000
183000
1FF000
1FF000
183000
183000
180000
180300
180300
180300
180300
7FFF00
7FFF00
000000
000000
000000
000000
000000
000000
ENDCHAR

STARTCHAR onx221
ENCODING 221
SWIDTH 600 0
DWIDTH 18 0
BBX 18 30 0 -6
BITMAP
000000
000000
000000
000000
0C1800
1E3C00
1E3C00
0C1800
000000
000000
0FE000
0FE000
006000
006000
006000
006000
006000
006000
006000
006000
006000
006000
1FFF00
1FFF00
000000
000000
000000
000000
000000
000000
ENDCHAR

STARTCHAR onx222
ENCODING 222
SWIDTH 600 0
DWIDTH 18 0
BBX 18 30 0 -6
BITMAP
000000
000000
000000
000000
000000
01C000
07F000
0C3800
0C1800
181800
181800
183000
187000
19E000
19F800
181E00
180600
180300
180300
18C300
18C300
18C600
7CFE00
7C7C00
000000
000000
000000
000000
000000
000000
ENDCHAR

STARTCHAR onx223
ENCODING 223
SWIDTH 600 0
DWIDTH 18 0
BBX 18 30 0 -6
BITMAP
000000
000000
000000
000000
000000
000000
000000
000000
000000
000000
000000
000000
000000
000000
000000
000000
000000
000000
000000
000000
000000
000000
000000
000000
000000
000000
000000
000000
000000
000000
ENDCHAR

STARTCHAR onx224
ENCODING 224
SWIDTH 600 0
DWIDTH 18 0
BBX 18 30 0 -6
BITMAP
000000
000000
000000
000000
000000
000000
000000
000000
000000
000000
000000
000000
000000
000000
000000
000000
000000
000000
000000
000000
000000
000000
000000
000000
000000
000000
000000
000000
000000
000000
ENDCHAR

STARTCHAR onx225
ENCODING 225
SWIDTH 600 0
DWIDTH 18 0
BBX 18 30 0 -6
BITMAP
000000
000000
000000
000000
000000
000000
000000
000000
000000
000000
000000
000000
000000
000000
000000
000000
000000
000000
000000
000000
000000
000000
000000
000000
000000
000000
000000
000000
000000
000000
ENDCHAR

STARTCHAR onx226
ENCODING 226
SWIDTH 600 0
DWIDTH 18 0
BBX 18 30 0 -6
BITMAP
000000
000000
000000
000000
000000
000000
000000
000000
000000
000000
000000
000000
000000
000000
000000
000000
000000
000000
000000
000000
000000
000000
000000
000000
000000
000000
000000
000000
000000
000000
ENDCHAR

STARTCHAR onx227
ENCODING 227
SWIDTH 600 0
DWIDTH 18 0
BBX 18 30 0 -6
BITMAP
000000
000000
000000
000000
000000
000000
000000
000000
000000
000000
000000
000000
000000
000000
000000
000000
000000
000000
000000
000000
000000
000000
000000
000000
000000
000000
000000
000000
000000
000000
ENDCHAR

STARTCHAR onx228
ENCODING 228
SWIDTH 600 0
DWIDTH 18 0
BBX 18 30 0 -6
BITMAP
000000
000000
000000
000000
000000
000000
000000
000000
000000
000000
000000
000000
000000
000000
000000
000000
000000
000000
000000
000000
000000
000000
000000
000000
000000
000000
000000
000000
000000
000000
ENDCHAR

STARTCHAR onx229
ENCODING 229
SWIDTH 600 0
DWIDTH 18 0
BBX 18 30 0 -6
BITMAP
000000
000000
000000
000000
000000
000000
000000
000000
000000
000000
000000
000000
000000
000000
000000
000000
000000
000000
000000
000000
000000
000000
000000
000000
000000
000000
000000
000000
000000
000000
ENDCHAR

STARTCHAR onx230
ENCODING 230
SWIDTH 600 0
DWIDTH 18 0
BBX 18 30 0 -6
BITMAP
000000
000000
000000
000000
000000
000000
000000
000000
000000
000000
000000
000000
000000
000000
000000
000000
000000
000000
000000
000000
000000
000000
000000
000000
000000
000000
000000
000000
000000
000000
ENDCHAR

STARTCHAR onx231
ENCODING 231
SWIDTH 600 0
DWIDTH 18 0
BBX 18 30 0 -6
BITMAP
000000
000000
000000
000000
000000
000000
000000
000000
000000
000000
000000
000000
000000
000000
000000
000000
000000
000000
000000
000000
000000
000000
000000
000000
000000
000000
000000
000000
000000
000000
ENDCHAR

STARTCHAR onx232
ENCODING 232
SWIDTH 600 0
DWIDTH 18 0
BBX 18 30 0 -6
BITMAP
000000
000000
000000
000000
000000
000000
000000
000000
000000
000000
000000
000000
000000
000000
000000
000000
000000
000000
000000
000000
000000
000000
000000
000000
000000
000000
000000
000000
000000
000000
ENDCHAR

STARTCHAR onx233
ENCODING 233
SWIDTH 600 0
DWIDTH 18 0
BBX 18 30 0 -6
BITMAP
000000
000000
000000
000000
000000
000000
000000
000000
000000
000000
000000
000000
000000
000000
000000
000000
000000
000000
000000
000000
000000
000000
000000
000000
000000
000000
000000
000000
000000
000000
ENDCHAR

STARTCHAR onx234
ENCODING 234
SWIDTH 600 0
DWIDTH 18 0
BBX 18 30 0 -6
BITMAP
000000
000000
000000
000000
000000
000000
000000
000000
000000
000000
000000
000000
000000
000000
000000
000000
000000
000000
000000
000000
000000
000000
000000
000000
000000
000000
000000
000000
000000
000000
ENDCHAR

STARTCHAR onx235
ENCODING 235
SWIDTH 600 0
DWIDTH 18 0
BBX 18 30 0 -6
BITMAP
000000
000000
000000
000000
000000
000000
000000
000000
000000
000000
000000
000000
000000
000000
000000
000000
000000
000000
000000
000000
000000
000000
000000
000000
000000
000000
000000
000000
000000
000000
ENDCHAR

STARTCHAR onx236
ENCODING 236
SWIDTH 600 0
DWIDTH 18 0
BBX 18 30 0 -6
BITMAP
000000
000000
000000
000000
000000
000000
000000
000000
000000
000000
000000
000000
000000
000000
000000
000000
000000
000000
000000
000000
000000
000000
000000
000000
000000
000000
000000
000000
000000
000000
ENDCHAR

STARTCHAR onx237
ENCODING 237
SWIDTH 600 0
DWIDTH 18 0
BBX 18 30 0 -6
BITMAP
000000
000000
000000
000000
000000
000000
000000
000000
000000
000000
000000
000000
000000
000000
000000
000000
000000
000000
000000
000000
000000
000000
000000
000000
000000
000000
000000
000000
000000
000000
ENDCHAR

STARTCHAR onx238
ENCODING 238
SWIDTH 600 0
DWIDTH 18 0
BBX 18 30 0 -6
BITMAP
000000
000000
000000
000000
000000
000000
000000
000000
000000
000000
000000
000000
000000
000000
000000
000000
000000
000000
000000
000000
000000
000000
000000
000000
000000
000000
000000
000000
000000
000000
ENDCHAR

STARTCHAR onx239
ENCODING 239
SWIDTH 600 0
DWIDTH 18 0
BBX 18 30 0 -6
BITMAP
000000
000000
000000
000000
000000
000000
000000
000000
000000
000000
000000
000000
000000
000000
000000
000000
000000
000000
000000
000000
000000
000000
000000
000000
000000
000000
000000
000000
000000
000000
ENDCHAR

STARTCHAR onx240
ENCODING 240
SWIDTH 600 0
DWIDTH 18 0
BBX 18 30 0 -6
BITMAP
000000
000000
000000
000000
000000
000000
000000
000000
000000
000000
000000
000000
000000
000000
000000
000000
000000
000000
000000
000000
000000
000000
000000
000000
000000
000000
000000
000000
000000
000000
ENDCHAR

STARTCHAR onx241
ENCODING 241
SWIDTH 600 0
DWIDTH 18 0
BBX 18 30 0 -6
BITMAP
000000
000000
000000
000000
000000
000000
000000
000000
000000
000000
000000
000000
000000
000000
000000
000000
000000
000000
000000
000000
000000
000000
000000
000000
000000
000000
000000
000000
000000
000000
ENDCHAR

STARTCHAR onx242
ENCODING 242
SWIDTH 600 0
DWIDTH 18 0
BBX 18 30 0 -6
BITMAP
000000
000000
000000
000000
000000
000000
000000
000000
000000
000000
000000
000000
000000
000000
000000
000000
000000
000000
000000
000000
000000
000000
000000
000000
000000
000000
000000
000000
000000
000000
ENDCHAR

STARTCHAR onx243
ENCODING 243
SWIDTH 600 0
DWIDTH 18 0
BBX 18 30 0 -6
BITMAP
000000
000000
000000
000000
000000
000000
000000
000000
000000
000000
000000
000000
000000
000000
000000
000000
000000
000000
000000
000000
000000
000000
000000
000000
000000
000000
000000
000000
000000
000000
ENDCHAR

STARTCHAR onx244
ENCODING 244
SWIDTH 600 0
DWIDTH 18 0
BBX 18 30 0 -6
BITMAP
000000
000000
000000
000000
000000
000000
000000
000000
000000
000000
000000
000000
000000
000000
000000
000000
000000
000000
000000
000000
000000
000000
000000
000000
000000
000000
000000
000000
000000
000000
ENDCHAR

STARTCHAR onx245
ENCODING 245
SWIDTH 600 0
DWIDTH 18 0
BBX 18 30 0 -6
BITMAP
000000
000000
000000
000000
000000
000000
000000
000000
000000
000000
000000
000000
000000
000000
000000
000000
000000
000000
000000
000000
000000
000000
000000
000000
000000
000000
000000
000000
000000
000000
ENDCHAR

STARTCHAR onx246
ENCODING 246
SWIDTH 600 0
DWIDTH 18 0
BBX 18 30 0 -6
BITMAP
000000
000000
000000
000000
000000
000000
000000
000000
000000
000000
000000
000000
000000
000000
000000
000000
000000
000000
000000
000000
000000
000000
000000
000000
000000
000000
000000
000000
000000
000000
ENDCHAR

STARTCHAR onx247
ENCODING 247
SWIDTH 600 0
DWIDTH 18 0
BBX 18 30 0 -6
BITMAP
000000
000000
000000
000000
000000
000000
000000
000000
000000
000000
000000
000000
000000
000000
000000
000000
000000
000000
000000
000000
000000
000000
000000
000000
000000
000000
000000
000000
000000
000000
ENDCHAR

STARTCHAR onx248
ENCODING 248
SWIDTH 600 0
DWIDTH 18 0
BBX 18 30 0 -6
BITMAP
000000
000000
000000
000000
000000
000000
000000
000000
000000
000000
000000
000000
000000
000000
000000
000000
000000
000000
000000
000000
000000
000000
000000
000000
000000
000000
000000
000000
000000
000000
ENDCHAR

STARTCHAR onx249
ENCODING 249
SWIDTH 600 0
DWIDTH 18 0
BBX 18 30 0 -6
BITMAP
000000
000000
000000
000000
000000
000000
000000
000000
000000
000000
000000
000000
000000
000000
000000
000000
000000
000000
000000
000000
000000
000000
000000
000000
000000
000000
000000
000000
000000
000000
ENDCHAR

STARTCHAR onx250
ENCODING 250
SWIDTH 600 0
DWIDTH 18 0
BBX 18 30 0 -6
BITMAP
000000
000000
000000
000000
000000
000000
000000
000000
000000
000000
000000
000000
000000
000000
000000
000000
000000
000000
000000
000000
000000
000000
000000
000000
000000
000000
000000
000000
000000
000000
ENDCHAR

STARTCHAR onx251
ENCODING 251
SWIDTH 600 0
DWIDTH 18 0
BBX 18 30 0 -6
BITMAP
000000
000000
000000
000000
000000
000000
000000
000000
000000
000000
000000
000000
000000
000000
000000
000000
000000
000000
000000
000000
000000
000000
000000
000000
000000
000000
000000
000000
000000
000000
ENDCHAR

STARTCHAR onx252
ENCODING 252
SWIDTH 600 0
DWIDTH 18 0
BBX 18 30 0 -6
BITMAP
000000
000000
000000
000000
000000
000000
000000
000000
000000
000000
000000
000000
000000
000000
000000
000000
000000
000000
000000
000000
000000
000000
000000
000000
000000
000000
000000
000000
000000
000000
ENDCHAR

STARTCHAR onx253
ENCODING 253
SWIDTH 600 0
DWIDTH 18 0
BBX 18 30 0 -6
BITMAP
000000
000000
000000
000000
000000
000000
000000
000000
000000
000000
000000
000000
000000
000000
000000
000000
000000
000000
000000
000000
000000
000000
000000
000000
000000
000000
000000
000000
000000
000000
ENDCHAR

STARTCHAR onx254
ENCODING 254
SWIDTH 600 0
DWIDTH 18 0
BBX 18 30 0 -6
BITMAP
000000
000000
000000
000000
000000
000000
000000
000000
000000
000000
000000
000000
000000
000000
000000
000000
000000
000000
000000
000000
000000
000000
000000
000000
000000
000000
000000
000000
000000
000000
ENDCHAR

STARTCHAR onx255
ENCODING 255
SWIDTH 600 0
DWIDTH 18 0
BBX 18 30 0 -6
BITMAP
000000
000000
000000
000000
000000
000000
000000
000000
000000
000000
000000
000000
000000
000000
000000
000000
000000
000000
000000
000000
000000
000000
000000
000000
000000
000000
000000
000000
000000
000000
ENDCHAR
ENDFONT
